<svg version="1.1" id="Layer_1" xmlns="http://www.w3.org/2000/svg" x="0" y="0" viewBox="0 0 22 22" xml:space="preserve"><style/><path class="noFill" d="M0 0h22v22H0z"/><path class="fill" d="M16.1 3.6h-1.9v-.3c0-1.3-1-2.3-2.3-2.3h-1.7C8.9 1 7.8 2 7.8 3.3v.2H5.9c-1.3 0-2.3 1-2.3 2.3v1.3c0 .5.4.9.9 1v10.5c0 1.3 1 2.3 2.3 2.3h8.5c1.3 0 2.3-1 2.3-2.3V8.2c.5-.1.9-.5.9-1V5.9c-.1-1.3-1.1-2.3-2.4-2.3zm-7-.3c0-.6.5-1.1 1.1-1.1h1.7c.6 0 1.1.5 1.1 1.1v.2H9.1v-.2zm7.2 15.4c0 .6-.5 1.1-1.1 1.1H6.7c-.6 0-1.1-.5-1.1-1.1V8.2h10.6l.1 10.5zM17.2 7H4.8V5.9c0-.6.5-1.1 1.1-1.1h10.2c.6 0 1.1.5 1.1 1.1V7z"/><path class="fill" d="M11 18c-.4 0-.6-.3-.6-.6v-6.8c0-.4.3-.6.6-.6s.6.3.6.6v6.8c0 .3-.2.6-.6.6zm-3 0c-.4 0-.6-.3-.6-.6v-6.8c0-.4.3-.6.6-.6.4 0 .6.3.6.6v6.8c.1.3-.2.6-.6.6zm6 0c-.4 0-.6-.3-.6-.6v-6.8c0-.4.3-.6.6-.6.4 0 .6.3.6.6v6.8c0 .3-.3.6-.6.6z"/></svg>